<?xml version="1.0" standalone="no"?><!DOCTYPE svg PUBLIC "-//W3C//DTD SVG 1.1//EN" "http://www.w3.org/Graphics/SVG/1.1/DTD/svg11.dtd"><svg class="icon" width="200px" height="200.00px" viewBox="0 0 1024 1024" version="1.1" xmlns="http://www.w3.org/2000/svg"><path d="M314.52 291.63s-100.19-17.47-130.42 79.28c0 0-26.85 91.27 48.02 128.61 0 0-52.03 12.79-64.56 84.69-7.06 40.51 22.86 93.09 66.3 101.05l80.67-393.63z" fill="#E58200" /><path d="M337.08 162L186.6 865.95l477.84-25.51-38.12-345.87L862 368.9l-28.86-179.6-410.52 61.34L337.08 162z" fill="#EDC100" /><path d="M453.98 415.99m-87.02 0a87.02 87.02 0 1 0 174.04 0 87.02 87.02 0 1 0-174.04 0Z" fill="#FFFFFF" /><path d="M471.5 396.7m-33.79 0a33.79 33.79 0 1 0 67.58 0 33.79 33.79 0 1 0-67.58 0Z" fill="#000600" /></svg>