<?xml version="1.0" standalone="no"?><!DOCTYPE svg PUBLIC "-//W3C//DTD SVG 1.1//EN" "http://www.w3.org/Graphics/SVG/1.1/DTD/svg11.dtd"><svg class="icon" width="200px" height="200.00px" viewBox="0 0 1024 1024" version="1.1" xmlns="http://www.w3.org/2000/svg"><path d="M618.92 201.58m-60.08 0a60.08 60.08 0 1 0 120.16 0 60.08 60.08 0 1 0-120.16 0Z" fill="#000600" /><path d="M648.38 207.12m-23.69 0a23.69 23.69 0 1 0 47.38 0 23.69 23.69 0 1 0-47.38 0Z" fill="#FFFFFF" /><path d="M854.02 247.98H587.65L545 191l-281 56.98-120 607.23h660L764 438.5l90.02-18.5V247.98z" fill="#FFBCB6" /><path d="M746.37 337.5m-29.37 0a29.37 29.37 0 1 0 58.74 0 29.37 29.37 0 1 0-58.74 0Z" fill="#FF673D" /><path d="M850.63 337.5m-29.37 0a29.37 29.37 0 1 0 58.74 0 29.37 29.37 0 1 0-58.74 0Z" fill="#FF673D" /><path d="M233.34 228.62c7.94 16.22 23.14 26.51 39.76 28.88 8.31-14.59 9.49-32.9 1.55-49.12s-23.14-26.51-39.76-28.88c-8.31 14.59-9.49 32.9-1.55 49.12zM356.82 204.37c-2.25 17.92-13.28 32.58-28.23 40.22-12.6-11.1-19.66-28.04-17.41-45.96s13.28-32.58 28.23-40.22c12.6 11.1 19.66 28.04 17.41 45.96z" fill="#FFBCB6" /><path d="M499.08 207.42m-60.08 0a60.08 60.08 0 1 0 120.16 0 60.08 60.08 0 1 0-120.16 0Z" fill="#000600" /><path d="M525.15 212.96m-23.69 0a23.69 23.69 0 1 0 47.38 0 23.69 23.69 0 1 0-47.38 0Z" fill="#FFFFFF" /></svg>