<?xml version="1.0" standalone="no"?><!DOCTYPE svg PUBLIC "-//W3C//DTD SVG 1.1//EN" "http://www.w3.org/Graphics/SVG/1.1/DTD/svg11.dtd"><svg class="icon" width="200px" height="200.00px" viewBox="0 0 1024 1024" version="1.1" xmlns="http://www.w3.org/2000/svg"><path d="M427.99 149l-61.73 18.83 48.13 46.04 13.6-64.87zM413.35 213.87l-61.74 18.83 48.13 46.04 13.61-64.87zM404.98 278.74l-61.74 18.84 48.13 46.03 13.61-64.87z" fill="#EDC100" /><path d="M388.23 335.24l-61.73 18.84 48.13 46.03 13.6-64.87zM373.59 400.11l-61.74 18.84 48.13 46.04 13.61-64.88zM358.94 464.99l-61.73 18.83 48.13 46.04 13.6-64.87zM345.34 529.86l-61.74 18.83 48.13 46.04 13.61-64.87z" fill="#EDC100" /><path d="M426.95 149.21l416.43 41.85-20.93 165.16-110.52 31.39 46.7 361.97-565.01 37.67 124.51-130.79 108.82-507.25z" fill="#719E65" /><path d="M576.8 279.47m-49.91 0a49.91 49.91 0 1 0 99.82 0 49.91 49.91 0 1 0-99.82 0Z" fill="#FFFFFF" /><path d="M577 278.97m-20.7 0a20.7 20.7 0 1 0 41.4 0 20.7 20.7 0 1 0-41.4 0Z" fill="#000600" /></svg>