<?xml version="1.0" standalone="no"?><!DOCTYPE svg PUBLIC "-//W3C//DTD SVG 1.1//EN" "http://www.w3.org/Graphics/SVG/1.1/DTD/svg11.dtd"><svg class="icon" width="200px" height="200.00px" viewBox="0 0 1024 1024" version="1.1" xmlns="http://www.w3.org/2000/svg"><path d="M286.09 142v409.01L191 563.61v204.23l532.74-45.83 57.28-557.1L286.09 142z" fill="#5385C2" /><path d="M832.58 399l-101.97-44.47v88.94L832.58 399z" fill="#FF673D" /><path d="M359.284484 259.261951m20.469026-1.126479l294.554284-16.210303q20.469026-1.126479 21.595505 19.342548l0 0q1.126479 20.469026-19.342547 21.595505l-294.554284 16.210303q-20.469026 1.126479-21.595505-19.342548l0 0q-1.126479-20.469026 19.342547-21.595505Z" fill="#000600" /><path d="M430.012946 306.953293a26.5 35 86.85 1 0 69.894237-3.846513 26.5 35 86.85 1 0-69.894237 3.846513Z" fill="#000600" /><path d="M561.815434 299.701794a26.5 35 86.85 1 0 69.894237-3.846512 26.5 35 86.85 1 0-69.894237 3.846512Z" fill="#000600" /></svg>