<?xml version="1.0" standalone="no"?><!DOCTYPE svg PUBLIC "-//W3C//DTD SVG 1.1//EN" "http://www.w3.org/Graphics/SVG/1.1/DTD/svg11.dtd"><svg class="icon" width="200px" height="200.00px" viewBox="0 0 1024 1024" version="1.1" xmlns="http://www.w3.org/2000/svg"><path d="M166.97 314.82m-42.12 0a42.12 42.12 0 1 0 84.24 0 42.12 42.12 0 1 0-84.24 0Z" fill="#FFBCB6" /><path d="M162.868 333.302l22.592-22.592 320.425 320.425-22.592 22.592z" fill="#FFBCB6" /><path d="M903 408.05l-549.1-84.76-24.3 157.4-158.91-24.53s4.91 272.76 301.34 318.52C810.02 826.85 877.19 575.21 903 408.05z" fill="#FC6037" /><path d="M493.79 419.34m-108.31 0a108.31 108.31 0 1 0 216.62 0 108.31 108.31 0 1 0-216.62 0Z" fill="#EDC100" /><path d="M454.09 358.37m-19.16 0a19.16 19.16 0 1 0 38.32 0 19.16 19.16 0 1 0-38.32 0Z" fill="#000600" /></svg>