<?xml version="1.0" standalone="no"?><!DOCTYPE svg PUBLIC "-//W3C//DTD SVG 1.1//EN" "http://www.w3.org/Graphics/SVG/1.1/DTD/svg11.dtd"><svg class="icon" width="200px" height="200.00px" viewBox="0 0 1024 1024" version="1.1" xmlns="http://www.w3.org/2000/svg"><path d="M180 184l28.94 364.71C223.65 734.08 378.37 877 564.32 877c174.62 0 316.19-141.56 316.19-316.19L875 374l85-91.06-12.9-10.47L924 286l15.61-19.61-9.66-7.84L896 284l26.16-31.77-9.36-7.59L883 267l24.4-26.75L890 226l-81 93-59-88-12 4 11 27-19-22-11 8 19 31-27-24-14 15 21 24-29-12-12 17 90 72c-12.16 67.16-70.63 116-138.89 116h-76.75c-45.08 0-85.43-27.97-101.25-70.18l-45.3-120.86C379.57 228.62 315.2 184 243.29 184H180z" fill="#ADADAD" /><path d="M183.5 188.5m-17.5 0a17.5 17.5 0 1 0 35 0 17.5 17.5 0 1 0-35 0Z" fill="#000600" /><path d="M371 244m-31 0a31 31 0 1 0 62 0 31 31 0 1 0-62 0Z" fill="#000600" /><path d="M360.46 234.36m-12.23 0a12.23 12.23 0 1 0 24.46 0 12.23 12.23 0 1 0-24.46 0Z" fill="#FFFFFF" /><path d="M299 201.5m-31 0a31 31 0 1 0 62 0 31 31 0 1 0-62 0Z" fill="#000600" /><path d="M288.46 192.36m-12.23 0a12.23 12.23 0 1 0 24.46 0 12.23 12.23 0 1 0-24.46 0Z" fill="#FFFFFF" /></svg>