<?xml version="1.0" standalone="no"?><!DOCTYPE svg PUBLIC "-//W3C//DTD SVG 1.1//EN" "http://www.w3.org/Graphics/SVG/1.1/DTD/svg11.dtd"><svg class="icon" width="200px" height="200.00px" viewBox="0 0 1024 1024" version="1.1" xmlns="http://www.w3.org/2000/svg"><path d="M353.54 714.53c-29.78-4.25-53.17-27.02-57.59-56.05-19.83-130.06-50.07-483.84 202.41-508.41 275.58-26.81 264.5 361.05 251.19 504.08-2.9 31.15-27.6 56.13-59.42 60.05-41.63 5.14-106.37 10.79-189.72 10.79-59.69 0-111.52-5.42-146.87-10.47z" fill="#5286C0" /><path d="M347.75 647.82s-2.5 85.34-15.28 123.51c-10.77 32.16-54.51 8.92-54.51 8.92s-10.74-2.74-12.14 8.57c-1.84 14.89 9.71 27.4 9.71 27.4s32.17 33.2 89.7 16.13c55.74-16.53 57.95-175.21 57.95-175.21l-75.43-9.33zM714 645s-16.08 87.97-2.75 125.95c11.23 32.01 54.63 8.15 54.63 8.15s10.7-2.89 12.27 8.4c2.05 14.86-9.32 27.53-9.32 27.53s-31.69 33.66-89.46 17.41C623.4 816.7 630 656.99 630 656.99l84-12zM576.61 648.16s-23.16 93.85-13.09 136.78c8.49 36.17 31.54 25.26 31.54 25.26s12-1.9 12.38 10.58c0.5 16.42-13.37 28.9-13.37 28.9s-33.08 21.32-72.46-1.5c-55.1-31.93-35.87-197.26-35.87-197.26l90.87-2.76z" fill="#5286C0" /><path d="M385.517994 303.946331m13.484902-0.63829l224.748369-10.638178q13.484902-0.638291 14.123193 12.846612l0 0q0.638291 13.484902-12.846612 14.123192l-224.748368 10.638178q-13.484902 0.638291-14.123193-12.846612l0 0q-0.638291-13.484902 12.846611-14.123192Z"  /><path d="M427.29 349.3a33.63 39.7 0 1 0 67.26 0 33.63 39.7 0 1 0-67.26 0Z"  /><path d="M542.45 344.7a33.63 39.7 0 1 0 67.26 0 33.63 39.7 0 1 0-67.26 0Z"  /><path d="M471.5 349.5m-18.5 0a18.5 18.5 0 1 0 37 0 18.5 18.5 0 1 0-37 0Z" fill="#FFFFFF" /><path d="M586.5 344.5m-18.5 0a18.5 18.5 0 1 0 37 0 18.5 18.5 0 1 0-37 0Z" fill="#FFFFFF" /><path d="M635.02 534.36c-6.77-54.28-61.38-92.15-121.97-84.59s-104.22 57.69-97.45 111.97c6.77 54.28 61.38 92.15 121.97 84.59s104.22-57.69 97.45-111.97z m-101.69 48.39c-29.72 2.75-56.51-11.01-59.84-30.73-3.32-19.72 18.08-37.92 47.8-40.67s56.51 11.01 59.84 30.73c3.32 19.72-18.08 37.92-47.8 40.67z" fill="#FFBCB6" /></svg>