<?xml version="1.0" standalone="no"?><!DOCTYPE svg PUBLIC "-//W3C//DTD SVG 1.1//EN" "http://www.w3.org/Graphics/SVG/1.1/DTD/svg11.dtd"><svg class="icon" width="200px" height="200.00px" viewBox="0 0 1024 1024" version="1.1" xmlns="http://www.w3.org/2000/svg"><path d="M724.69 436.04l114.05 46.46-77.57 34.34 67.01 56.48-108.84 18.38-14.38-118.6 19.73-37.06z" fill="#FC6037" /><path d="M716.6 372.28L772.21 831H207.83L429 372.28h287.6z" fill="#EDC100" /><path d="M429 372l-51.77-152.94 121.42 40.07 123-90.13 22.45 85.72 104.9-44L717 372H429z" fill="#FC6037" /><path d="M601.22 490.7m-57.41 0a57.41 57.41 0 1 0 114.82 0 57.41 57.41 0 1 0-114.82 0Z" fill="#FFFFFF" /><path d="M601.41 490.21m-19.78 0a19.78 19.78 0 1 0 39.56 0 19.78 19.78 0 1 0-39.56 0Z" fill="#000600" /></svg>