<?xml version="1.0" standalone="no"?><!DOCTYPE svg PUBLIC "-//W3C//DTD SVG 1.1//EN" "http://www.w3.org/Graphics/SVG/1.1/DTD/svg11.dtd"><svg class="icon" width="200px" height="200.00px" viewBox="0 0 1024 1024" version="1.1" xmlns="http://www.w3.org/2000/svg"><path d="M333 381l147 327-243.84-14.48-96.84-154.3 107.2-74.31L333 381" fill="#EDC100" /><path d="M300.5 473.5m-28.5 0a28.5 28.5 0 1 0 57 0 28.5 28.5 0 1 0-57 0Z" fill="#000600" /><path d="M309.82 336.36L432.58 643.1 371.2 907s467.05-183.47 476.1-197.99S879 272 879 272L656 134l-228 41-118.18 161.36z" fill="#E58200" /><path d="M392 381l48.49 120.77 70.24-70.95 9.75-49.82L477 341l-85 40z" fill="#EDC100" /><path d="M140 539l78-20-11 67.36L186 614l-46-75z" fill="#000600" /></svg>