<?xml version="1.0" standalone="no"?><!DOCTYPE svg PUBLIC "-//W3C//DTD SVG 1.1//EN" "http://www.w3.org/Graphics/SVG/1.1/DTD/svg11.dtd"><svg class="icon" width="200px" height="200.00px" viewBox="0 0 1024 1024" version="1.1" xmlns="http://www.w3.org/2000/svg"><path d="M153.74 417.263l220.192 25.205c16.522 1.89 28.4 16.838 26.508 33.36l-14.215 124.19c-1.891 16.522-16.839 28.399-33.361 26.508L132.672 601.32c-50.789-5.813-87.309-51.775-81.495-102.563 5.813-50.788 51.775-87.309 102.563-81.495z" fill="#719E65" /><path d="M343.16 557L236.74 807.48h239.93s25.1-75.56 152.5-75.56c0 0 96.44-5.75 132.58 75.56h129.49L786.59 557H343.15z" fill="#719E65" /><path d="M120.69 431.77m-45.69 0a45.69 45.69 0 1 0 91.38 0 45.69 45.69 0 1 0-91.38 0Z" fill="#EDC100" /><path d="M104.21 432.15a16.48 37.08 0 1 0 32.96 0 16.48 37.08 0 1 0-32.96 0Z" fill="#000600" /><path d="M227.8 431.77m-45.69 0a45.69 45.69 0 1 0 91.38 0 45.69 45.69 0 1 0-91.38 0Z" fill="#EDC100" /><path d="M211.32 432.15a16.48 37.08 0 1 0 32.96 0 16.48 37.08 0 1 0-32.96 0Z" fill="#000600" /><path d="M212 723l122.11-324.53c38.9-103.4 138.67-171.11 249.13-169.09 117.07 2.14 218.4 81.97 247.88 195.29L920 766.29l-708-43.28z" fill="#E2B459" /></svg>