<?xml version="1.0" standalone="no"?><!DOCTYPE svg PUBLIC "-//W3C//DTD SVG 1.1//EN" "http://www.w3.org/Graphics/SVG/1.1/DTD/svg11.dtd"><svg class="icon" width="200px" height="200.00px" viewBox="0 0 1024 1024" version="1.1" xmlns="http://www.w3.org/2000/svg"><path d="M355.4 223.96l-48.76 452.08h-49.62l-27.57-163.56 68-52.38-55.03-43.93-32.26 55.88-32.26-55.88-67.9 55.88 62.48 48.7L134.81 801h742.44L914 294.71l-558.6-70.75z" fill="#5286C0" /><path d="M688.88 384.76m-34.92 0a34.92 34.92 0 1 0 69.84 0 34.92 34.92 0 1 0-69.84 0Z" fill="#FFFFFF" /><path d="M706.34 370.97m-17.46 0a17.46 17.46 0 1 0 34.92 0 17.46 17.46 0 1 0-34.92 0Z" fill="#000600" /><path d="M813.84 384.76m-34.92 0a34.92 34.92 0 1 0 69.84 0 34.92 34.92 0 1 0-69.84 0Z" fill="#FFFFFF" /><path d="M676.02 597.01l226.95-27.56-4.59 64.32-222.36-36.76z" fill="#DADFE3" /><path d="M830.38 370.97m-17.46 0a17.46 17.46 0 1 0 34.92 0 17.46 17.46 0 1 0-34.92 0Z" fill="#000600" /></svg>