<?xml version="1.0" standalone="no"?><!DOCTYPE svg PUBLIC "-//W3C//DTD SVG 1.1//EN" "http://www.w3.org/Graphics/SVG/1.1/DTD/svg11.dtd"><svg class="icon" width="200px" height="200.00px" viewBox="0 0 1024 1024" version="1.1" xmlns="http://www.w3.org/2000/svg"><path d="M804.5 636.52l-0.95-2.71a995.394 995.394 0 0 0-86.23-183.48c-30.89-51.38-48.52-109.62-51.13-169.51-3.36-77.33-67.04-138.3-144.45-138.3-77.41 0-141.08 60.97-144.45 138.3l-0.02 0.47a358.682 358.682 0 0 1-51.12 169.51 994.873 994.873 0 0 0-87.24 185.86c-21.69 62.2 13.33 129.85 76.64 148.04l0.21 0.06a745.991 745.991 0 0 0 412.18 0c63.39-18.22 98.4-86 76.57-148.24z" fill="#EDC100" /><path d="M494.53 320.09a233.25 233.25 0 0 1-48.32 81.6l-5.03 5.52c-18.17 19.92-6.79 52.06 19.87 56.1 40.22 6.1 81.13 6.1 121.36 0 26.66-4.04 38.05-36.18 19.87-56.1l-5.03-5.52a233.119 233.119 0 0 1-48.32-81.59c-8.87-25.92-45.53-25.92-54.4 0z" fill="#FC6037" /><path d="M456.87 300.85m-53.56 0a53.56 53.56 0 1 0 107.12 0 53.56 53.56 0 1 0-107.12 0Z" fill="#FFFFFF" /><path d="M457.05 300.4m-18.46 0a18.46 18.46 0 1 0 36.92 0 18.46 18.46 0 1 0-36.92 0Z" fill="#000600" /><path d="M586.57 300.85m-53.56 0a53.56 53.56 0 1 0 107.12 0 53.56 53.56 0 1 0-107.12 0Z" fill="#FFFFFF" /><path d="M586.75 300.4m-18.46 0a18.46 18.46 0 1 0 36.92 0 18.46 18.46 0 1 0-36.92 0Z" fill="#000600" /></svg>