<?xml version="1.0" standalone="no"?><!DOCTYPE svg PUBLIC "-//W3C//DTD SVG 1.1//EN" "http://www.w3.org/Graphics/SVG/1.1/DTD/svg11.dtd"><svg class="icon" width="200px" height="200.00px" viewBox="0 0 1024 1024" version="1.1" xmlns="http://www.w3.org/2000/svg"><path d="M775.48 461.24s68.33-128.27 10.11-170.22c0 0-16.49-17.97-61.63-10.45 0 0-19.22 3.57-27.36-22.32 0 0-15.53-39.21-68.06-22.19l-68.8 25.89 215.73 199.29z" fill="#969696" /><path d="M525.77 872.84c-100.5-53.89-345.38-212.12-357.27-479.66-0.79-17.72 14.64-31.84 32.2-29.32l107.71 15.44c16.63 2.38 31.12-11.38 29.6-28.11l-10.76-118.07c-1.58-17.39 12.83-32.03 30.24-30.71 88.61 6.74 334.68 53.13 486.91 353.79 12.33 24.36 7.56 53.89-11.74 73.2L600.27 861.79c-19.69 19.69-49.96 24.22-74.5 11.06z" fill="#ADADAD" /><path d="M507.61 452.87m-91.04 0a91.04 91.04 0 1 0 182.08 0 91.04 91.04 0 1 0-182.08 0Z" fill="#FFFFFF" /><path d="M506.3 425.64m-35.35 0a35.35 35.35 0 1 0 70.7 0 35.35 35.35 0 1 0-70.7 0Z" fill="#000600" /></svg>