<?xml version="1.0" standalone="no"?><!DOCTYPE svg PUBLIC "-//W3C//DTD SVG 1.1//EN" "http://www.w3.org/Graphics/SVG/1.1/DTD/svg11.dtd"><svg class="icon" width="200px" height="200.00px" viewBox="0 0 1024 1024" version="1.1" xmlns="http://www.w3.org/2000/svg"><path d="M423.91 428.38c-105.39-193.5 0-217.37 0-217.37 60.11-14 79.81 64.46 79.81 64.46 46.14-123.03 119.95-64.59 119.95-64.59 70.74 58.44-58.44 239.9-58.44 239.9l-141.32-22.4z" fill="#E58200" /><path d="M865 593.2C865 726.74 718.27 835 513.28 835S181 727.25 181 593.71 308.29 351.4 513.28 351.4 865 459.66 865 593.2z" fill="#EDC100" /><path d="M270.13 586.17m-26.6 0a26.6 26.6 0 1 0 53.2 0 26.6 26.6 0 1 0-53.2 0Z" fill="#000600" /><path d="M358.11 586.17m-26.6 0a26.6 26.6 0 1 0 53.2 0 26.6 26.6 0 1 0-53.2 0Z" fill="#000600" /></svg>