<?xml version="1.0" standalone="no"?><!DOCTYPE svg PUBLIC "-//W3C//DTD SVG 1.1//EN" "http://www.w3.org/Graphics/SVG/1.1/DTD/svg11.dtd"><svg class="icon" width="200px" height="200.00px" viewBox="0 0 1024 1024" version="1.1" xmlns="http://www.w3.org/2000/svg"><path d="M801.05 677.16C801.05 805.75 671.86 880 512.5 880s-288.55-74.24-288.55-202.84S353.14 376 512.5 376s288.55 172.57 288.55 301.16z" fill="#FFBCB6" /><path d="M553.57 664.86c0 18.3-18.39 33.14-41.07 33.14s-41.07-14.84-41.07-33.14S489.82 622 512.5 622s41.07 24.56 41.07 42.86z" fill="#FFFFFF" /><path d="M388.07 483.01L268.09 289.07a50.411 50.411 0 0 1-2.44-48.61l27.54-56.51c11.69-23.98 40.03-34.7 64.66-24.46l27.84 11.57A50.396 50.396 0 0 1 415 204.45l64.6 238.87a50.427 50.427 0 0 1-15.51 51.14c-23.44 20.46-59.65 15.01-76.02-11.46zM651.41 477.84l111.83-222.92c8.72-17.39 6.69-38.25-5.24-53.62l-21.58-27.82c-16.58-21.38-47.06-25.9-69.14-10.25l-60.17 42.65a50.523 50.523 0 0 0-20.79 33.99l-30.08 208.09a50.509 50.509 0 0 0 18.99 47.11c25.15 19.55 61.89 11.24 76.18-17.23z" fill="#FFBCB6" /><path d="M417.53 572.1m-26.02 0a26.02 26.02 0 1 0 52.04 0 26.02 26.02 0 1 0-52.04 0Z" fill="#000600" /><path d="M618.53 572.1m-26.02 0a26.02 26.02 0 1 0 52.04 0 26.02 26.02 0 1 0-52.04 0Z" fill="#000600" /></svg>