<?xml version="1.0" standalone="no"?><!DOCTYPE svg PUBLIC "-//W3C//DTD SVG 1.1//EN" "http://www.w3.org/Graphics/SVG/1.1/DTD/svg11.dtd"><svg class="icon" width="200px" height="200.00px" viewBox="0 0 1024 1024" version="1.1" xmlns="http://www.w3.org/2000/svg"><path d="M377.06 855.28h291.72c103.95 0 181.72-95.61 160.29-197.33C793.09 487.12 710.54 267.38 524 267.99c-185.98 0.61-269.87 218.77-307.02 388.98-22.25 101.96 55.73 198.31 160.08 198.31z" fill="#ADADAD" /><path d="M356.98 299.89l5.89 105.49a407.785 407.785 0 0 0 74.3 212.87c14.79 20.89 37.78 34.45 63.21 37.4 16.3 1.89 35.87 3.3 55.77 2.75 33.91-0.94 64.46-20.73 78.99-51.38a477.336 477.336 0 0 0 45.28-177.91l7.54-135.17a89.92 89.92 0 0 0-29.29-71.55 89.958 89.958 0 0 0-60.5-23.39H454.88c-19.13 0-37.76 6.1-53.19 17.41l-8.1 5.94a89.946 89.946 0 0 0-36.61 77.53zM287.81 219.68c17.28-11.18 62.11-20.34 73.29-3.06 11.18 17.28-15.51 54.43-32.79 65.62-17.28 11.18-40.35 6.25-51.53-11.03s-6.25-40.35 11.03-51.53zM764.74 219.68c-17.28-11.18-62.11-20.34-73.29-3.06-11.18 17.28 15.51 54.43 32.79 65.62 17.28 11.18 40.35 6.25 51.53-11.03s6.25-40.35-11.03-51.53z" fill="#000600" /><path d="M439.8 317.47m-49.91 0a49.91 49.91 0 1 0 99.82 0 49.91 49.91 0 1 0-99.82 0Z" fill="#FFFFFF" /><path d="M460 316.97m-20.7 0a20.7 20.7 0 1 0 41.4 0 20.7 20.7 0 1 0-41.4 0Z" fill="#000600" /><path d="M608.8 317.47m-49.91 0a49.91 49.91 0 1 0 99.82 0 49.91 49.91 0 1 0-99.82 0Z" fill="#FFFFFF" /><path d="M588 316.97m-20.7 0a20.7 20.7 0 1 0 41.4 0 20.7 20.7 0 1 0-41.4 0Z" fill="#000600" /><path d="M518.74 603.49v-82.86h28.71v82.86c0 7.92-6.43 14.35-14.35 14.35s-14.35-6.43-14.35-14.35z" fill="#FFFFFF" /><path d="M521.1 537.09l-22.104-22.104c-5.6-5.6-5.6-14.694 0-20.294s14.694-5.6 20.294 0l22.104 22.104-20.3 20.301z" fill="#FFFFFF" /><path d="M567.795 514.994l-22.104 22.104-20.301-20.3 22.104-22.105c5.6-5.6 14.694-5.6 20.294 0s5.6 14.694 0 20.294z" fill="#FFFFFF" /></svg>