<?xml version="1.0" standalone="no"?><!DOCTYPE svg PUBLIC "-//W3C//DTD SVG 1.1//EN" "http://www.w3.org/Graphics/SVG/1.1/DTD/svg11.dtd"><svg class="icon" width="200px" height="200.00px" viewBox="0 0 1024 1024" version="1.1" xmlns="http://www.w3.org/2000/svg"><path d="M370.57 391.54m-228.77 0a228.77 228.77 0 1 0 457.54 0 228.77 228.77 0 1 0-457.54 0Z" fill="#5286C0" /><path d="M670.23 438.49m-228.77 0a228.77 228.77 0 1 0 457.54 0 228.77 228.77 0 1 0-457.54 0Z" fill="#5286C0" /><path d="M382.47 501.11S420.04 681.94 260.1 759.9l81.97 102.96S619.96 770.9 649.4 499.41l-162.3-95.1-104.63 96.8z" fill="#5286C0" /><path d="M420.17 450.61m-19.16 0a19.16 19.16 0 1 0 38.32 0 19.16 19.16 0 1 0-38.32 0Z" fill="#000600" /><path d="M610.1 478.6m-19.16 0a19.16 19.16 0 1 0 38.32 0 19.16 19.16 0 1 0-38.32 0Z" fill="#000600" /><path d="M301.114603 550.716591a40.5 27 18.11 1 0 16.785485-51.324921 40.5 27 18.11 1 0-16.785485 51.324921Z" fill="#FFBCB6" /><path d="M670 591a40.5 27 0 1 0 81 0 40.5 27 0 1 0-81 0Z" fill="#FFBCB6" /></svg>