<?xml version="1.0" standalone="no"?><!DOCTYPE svg PUBLIC "-//W3C//DTD SVG 1.1//EN" "http://www.w3.org/Graphics/SVG/1.1/DTD/svg11.dtd"><svg class="icon" width="200px" height="200.00px" viewBox="0 0 1024 1024" version="1.1" xmlns="http://www.w3.org/2000/svg"><path d="M802.64 406.93l-398.62-32.28-150.6 32.28s-70.84 316.61 271 342.5c341.84 25.89 278.22-342.5 278.22-342.5z" fill="#FC6037" /><path d="M625.45 297.71m-70.76 0a70.76 70.76 0 1 0 141.52 0 70.76 70.76 0 1 0-141.52 0Z" fill="#FC6037" /><path d="M427.394 317.634l32.637-5.456 21.823 130.55-32.637 5.455zM602.257 319.227l31.45 10.286-41.143 125.803-31.45-10.286z" fill="#FC6037" /><path d="M626.64 299.19m-43.91 0a43.91 43.91 0 1 0 87.82 0 43.91 43.91 0 1 0-87.82 0Z" fill="#000600" /><path d="M434.99 261.39m-70.76 0a70.76 70.76 0 1 0 141.52 0 70.76 70.76 0 1 0-141.52 0Z" fill="#FC6037" /><path d="M436.17 262.87m-43.91 0a43.91 43.91 0 1 0 87.82 0 43.91 43.91 0 1 0-87.82 0Z" fill="#000600" /><path d="M452.24 257.22m-17.35 0a17.35 17.35 0 1 0 34.7 0 17.35 17.35 0 1 0-34.7 0Z" fill="#FFFFFF" /><path d="M644.32 290.31m-17.35 0a17.35 17.35 0 1 0 34.7 0 17.35 17.35 0 1 0-34.7 0Z" fill="#FFFFFF" /><path d="M899.41 377.41l-79.18 25.7 18.37-86.33c-18.96-4.82-39.69-3.1-58.54 6.39-41.52 20.89-58.25 71.48-37.36 113.01 20.89 41.52 71.48 58.25 113.01 37.36 36.03-18.12 53.38-58.61 43.7-96.13zM227.14 296.65l20.6 80.66-84.98-23.85c-6.03 18.62-5.62 39.41 2.64 58.83 18.2 42.77 67.62 62.69 110.39 44.5 42.77-18.2 62.69-67.62 44.5-110.39-15.79-37.11-55.08-57.01-93.14-49.75z" fill="#FC6037" /></svg>