<?xml version="1.0" standalone="no"?><!DOCTYPE svg PUBLIC "-//W3C//DTD SVG 1.1//EN" "http://www.w3.org/Graphics/SVG/1.1/DTD/svg11.dtd"><svg class="icon" width="200px" height="200.00px" viewBox="0 0 1024 1024" version="1.1" xmlns="http://www.w3.org/2000/svg"><path d="M224 555c-76 17-73-14-73-14 0-16 19-21 19-21-40-15-21-39-21-39 19-23 78 19 78 19l-3 55z" fill="#E58200" /><path d="M483.81 514.5m-279.81 0a279.81 279.81 0 1 0 559.62 0 279.81 279.81 0 1 0-559.62 0Z" fill="#EDC100" /><path d="M873 572.12l-249.55-24.87v-65.5L873 456.88v115.24z" fill="#EDC100" /><path d="M345.98 487.99m-66.99 0a66.99 66.99 0 1 0 133.98 0 66.99 66.99 0 1 0-133.98 0Z" fill="#FFFFFF" /><path d="M329.81 472.06m-26.02 0a26.02 26.02 0 1 0 52.04 0 26.02 26.02 0 1 0-52.04 0Z" fill="#000600" /><path d="M199.24 346.74l42.9 54.79 24.32-36.8-67.22-17.99zM302.05 234.72l19.16 66.9 36.37-24.96-55.53-41.94zM468.85 185.05l-18.88 66.97 44.05-2.09-25.17-64.88zM624.03 211.05l-44.65 53.36 41.05 16.13 3.6-69.49zM743.21 301.08l-63.39 28.71 29.99 32.34 33.4-61.05zM765.61 695l-40-56.94-26.2 35.49 66.2 21.45zM657.14 801.54l-15.68-67.8-37.6 23.04 53.28 44.76zM487.98 842.51l22.34-65.91-44.11-0.19 21.77 66.1zM334.36 808.51l47.36-50.99-40.16-18.23-7.2 69.22zM220.01 712.42l64.79-25.39-28.28-33.85-36.51 59.24z" fill="#EDC100" /></svg>